<?xml version="1.0" encoding="UTF-8"?>
<!-- Generated by Pixelmator Pro 3.1.1 -->
<svg width="155" height="195" viewBox="0 0 155 195" xmlns="http://www.w3.org/2000/svg" xmlns:xlink="http://www.w3.org/1999/xlink">
    <g id="Group">
        <path id="Verticle-Stem" fill="#60a5fa" fill-rule="evenodd" stroke="none" d="M 72 106 C 72 57.675049 60.865967 19 57 19 C 53.134033 19 42 57.675049 42 106 C 42 154.32489 53.134033 194 57 194 C 60.865967 194 72 154.32489 72 106 Z"/>
        <path id="Verticle-Arc" fill="#60a5fa" fill-rule="evenodd" stroke="none" opacity="0.623379" d="M 155 97 C 155 43.428345 116.944214 0 70 0 C 23.055786 0 116 92.428345 116 146 C 116 199.571594 23.055786 194 70 194 C 116.944214 194 155 150.571594 155 97 Z"/>
        <path id="Bottom-Arc" fill="#93c2fd" fill-rule="evenodd" stroke="none" opacity="0.623379" d="M 2.229738 180.031067 C -4.259614 172.268524 7.263886 166 27.943237 166 C 48.622559 166 13.098449 175.776245 19.58783 183.538818 C 26.077148 191.301331 72.122559 194.110596 51.443237 194.110596 C 30.763916 194.110596 8.719087 187.793579 2.229738 180.031067 Z"/>
    </g>
</svg>
